<svg width="960" height="540" viewBox="0 0 960 540" fill="none" xmlns="http://www.w3.org/2000/svg">
<g clip-path="url(#clip0_258_133)">
<rect width="960" height="540" rx="32" fill="white"/>
<g clip-path="url(#clip1_258_133)">
<rect width="960" height="548" fill="#09090B"/>
<g filter="url(#filter0_f_258_133)">
<mask id="mask0_258_133" style="mask-type:luminance" maskUnits="userSpaceOnUse" x="0" y="1" width="960" height="547">
<path d="M706.56 283.316L880.32 64.6639L960 254.272L935.04 450.456L888 465.252L726.72 350.72L530.88 260.3L446.4 270.712L432 344.692L482.88 477.856L204.48 351.268L0.959961 548L51.84 280.028L205.44 350.172L565.44 1.09595L706.56 283.316Z" fill="white"/>
</mask>
<g mask="url(#mask0_258_133)">
<path opacity="0.3" d="M1152 -109.6H-192V657.6H1152V-109.6Z" fill="url(#paint0_linear_258_133)"/>
</g>
</g>
</g>
<g clip-path="url(#clip2_258_133)">
<path d="M320.597 273.276C318.008 271.831 314.53 270.608 310.169 269.615C306.891 268.807 304.37 268.051 302.59 267.339C300.81 266.627 299.572 265.782 298.889 264.811C298.2 263.84 297.859 262.64 297.859 261.217C297.859 258.985 298.697 257.199 300.387 255.843C302.071 254.494 304.385 253.812 307.329 253.812C309.65 253.812 311.623 254.227 313.24 255.057C314.856 255.887 316.132 257.051 317.081 258.541C318.031 260.038 318.624 261.758 318.861 263.7L326.767 263.27C326.389 260.09 325.402 257.266 323.815 254.805C322.221 252.337 320.063 250.395 317.333 248.971C314.604 247.548 311.319 246.837 307.47 246.837C303.621 246.837 300.684 247.452 298.074 248.69C295.463 249.928 293.453 251.64 292.059 253.849C290.657 256.058 289.96 258.607 289.96 261.498C289.96 264.107 290.494 266.301 291.562 268.08C292.63 269.859 294.373 271.342 296.798 272.528C299.216 273.714 302.449 274.803 306.484 275.804C310.184 276.708 312.995 277.62 314.923 278.546C316.844 279.473 318.149 280.488 318.839 281.608C319.529 282.72 319.87 283.994 319.87 285.418C319.87 286.982 319.469 288.308 318.661 289.405C317.853 290.495 316.681 291.318 315.138 291.859C313.596 292.407 311.734 292.674 309.546 292.674C307.032 292.674 304.882 292.259 303.102 291.429C301.322 290.599 299.913 289.368 298.867 287.73C297.821 286.092 297.132 284.091 296.805 281.719L288.9 282.216C289.182 285.677 290.183 288.716 291.889 291.325C293.594 293.934 295.938 295.973 298.904 297.448C301.871 298.915 305.371 299.657 309.406 299.657C313.062 299.657 316.265 299.064 319.017 297.878C321.768 296.692 323.919 294.994 325.462 292.785C327.004 290.577 327.775 287.982 327.775 284.995C327.775 282.527 327.227 280.325 326.136 278.376C325.046 276.434 323.207 274.737 320.619 273.291L320.597 273.276Z" fill="white"/>
<path d="M360.429 282.846C360.429 286.07 359.658 288.575 358.115 290.354C356.572 292.133 354.422 293.023 351.67 293.023C349.253 293.023 347.443 292.215 346.257 290.606C345.07 288.998 344.477 286.478 344.477 283.061V260.646H336.927V284.98C336.927 289.487 338.054 293.008 340.309 295.55C342.563 298.085 345.589 299.36 349.386 299.36C352.753 299.36 355.512 298.471 357.648 296.692C359.012 295.558 360.073 294.105 360.837 292.341L360.926 298.508H367.971V260.653H360.421V282.853L360.429 282.846Z" fill="white"/>
<path d="M425.18 261.461C423.303 260.349 421.041 259.786 418.379 259.786C416.339 259.786 414.508 260.186 412.898 260.994C411.282 261.802 409.969 262.951 408.946 264.448C408.315 265.375 407.811 266.45 407.41 267.658C406.728 265.582 405.645 263.87 404.147 262.528C402.108 260.705 399.475 259.786 396.242 259.786C394.388 259.786 392.682 260.186 391.117 260.994C389.552 261.802 388.232 262.936 387.164 264.411C386.578 265.212 386.104 266.123 385.711 267.109L385.562 260.638H378.658V298.493H386.208V276.293C386.208 274.203 386.541 272.394 387.201 270.852C387.869 269.311 388.781 268.14 389.945 267.332C391.11 266.524 392.496 266.123 394.113 266.123C396.679 266.123 398.489 267.013 399.557 268.792C400.625 270.571 401.159 273.076 401.159 276.3V298.5H408.352V276.3C408.352 274.166 408.671 272.342 409.316 270.823C409.954 269.303 410.866 268.14 412.06 267.339C413.247 266.531 414.626 266.131 416.191 266.131C418.609 266.131 420.418 266.961 421.605 268.621C422.792 270.282 423.385 272.75 423.385 276.019V298.508H430.935V274.173C430.935 271.09 430.445 268.481 429.474 266.346C428.502 264.211 427.078 262.588 425.202 261.468L425.18 261.461Z" fill="white"/>
<path d="M486.838 261.461C484.961 260.349 482.7 259.786 480.037 259.786C477.998 259.786 476.166 260.186 474.557 260.994C472.94 261.802 471.627 262.951 470.604 264.448C469.973 265.375 469.469 266.45 469.069 267.658C468.386 265.582 467.304 263.87 465.805 262.528C463.766 260.705 461.133 259.786 457.9 259.786C456.046 259.786 454.34 260.186 452.775 260.994C451.21 261.802 449.89 262.936 448.822 264.411C448.237 265.212 447.762 266.123 447.369 267.109L447.221 260.638H440.316V298.493H447.866V276.293C447.866 274.203 448.199 272.394 448.859 270.852C449.527 269.311 450.439 268.14 451.603 267.332C452.768 266.524 454.155 266.123 455.771 266.123C458.337 266.123 460.147 267.013 461.215 268.792C462.283 270.571 462.817 273.076 462.817 276.3V298.5H470.01V276.3C470.01 274.166 470.329 272.342 470.975 270.823C471.612 269.303 472.525 268.14 473.719 267.339C474.905 266.531 476.285 266.131 477.849 266.131C480.267 266.131 482.077 266.961 483.263 268.621C484.45 270.282 485.043 272.75 485.043 276.019V298.508H492.593V274.173C492.593 271.09 492.103 268.481 491.132 266.346C490.16 264.211 488.736 262.588 486.86 261.468L486.838 261.461Z" fill="white"/>
<path d="M526.885 262.173C524.275 260.586 521.264 259.786 517.845 259.786C514.241 259.786 511.103 260.601 508.448 262.239C505.793 263.877 503.739 266.175 502.293 269.14C500.847 272.105 500.12 275.581 500.12 279.562C500.12 283.542 500.839 287.033 502.293 290.021C503.739 293.008 505.808 295.313 508.486 296.921C511.17 298.53 514.359 299.338 518.06 299.338C522.235 299.338 525.788 298.256 528.702 296.099C531.624 293.942 533.582 291.103 534.576 287.597L526.744 287.1C526.173 288.857 525.157 290.258 523.681 291.296C522.213 292.341 520.359 292.86 518.127 292.86C515.086 292.86 512.683 291.933 510.903 290.087C509.123 288.234 508.137 285.462 507.952 281.763H535.147V279.844C535.147 275.619 534.42 272.016 532.974 269.029C531.528 266.042 529.496 263.751 526.885 262.165V262.173ZM507.944 276.086C508.374 272.861 509.45 270.408 511.185 268.718C512.92 267.035 515.138 266.19 517.845 266.19C520.552 266.19 522.606 266.998 524.289 268.607C525.973 270.222 526.937 272.713 527.174 276.078H507.952L507.944 276.086Z" fill="white"/>
<path d="M552.478 262.988C551.329 264.122 550.461 265.745 549.868 267.843L549.66 260.638H542.756V298.493H550.305V276.152C550.305 274.114 550.624 272.454 551.27 271.171C551.907 269.889 552.871 268.94 554.154 268.325C555.437 267.71 557.024 267.398 558.923 267.398H562.557V260.638H558.923C556.216 260.638 554.073 261.424 552.478 262.988Z" fill="white"/>
<path d="M600.646 269.607H577.293V247.978H569.602V298.5H577.293V276.582H600.646V298.5H608.33V247.978H600.646V269.607Z" fill="white"/>
<path d="M644.142 262.247C641.435 260.609 638.276 259.793 634.672 259.793C631.068 259.793 627.908 260.609 625.201 262.247C622.495 263.885 620.411 266.175 618.935 269.111C617.459 272.046 616.725 275.537 616.725 279.569C616.725 283.602 617.459 287.041 618.935 290.028C620.403 293.015 622.495 295.321 625.201 296.929C627.908 298.537 631.06 299.345 634.672 299.345C638.284 299.345 641.435 298.537 644.142 296.929C646.849 295.313 648.933 293.015 650.409 290.028C651.877 287.041 652.619 283.55 652.619 279.569C652.619 275.589 651.885 272.053 650.409 269.111C648.933 266.168 646.849 263.878 644.142 262.247ZM642.147 289.287C640.39 291.637 637.898 292.808 634.672 292.808C631.446 292.808 629.013 291.637 627.233 289.287C625.454 286.937 624.564 283.698 624.564 279.577C624.564 275.456 625.454 272.209 627.233 269.867C629.013 267.517 631.49 266.346 634.672 266.346C637.853 266.346 640.39 267.517 642.147 269.867C643.905 272.216 644.78 275.456 644.78 279.577C644.78 283.698 643.898 286.945 642.147 289.287Z" fill="white"/>
<path d="M684.301 279.391C682.069 278.42 678.984 277.598 675.046 276.938C673.006 276.604 671.367 276.219 670.136 275.767C668.898 275.315 668.008 274.736 667.466 274.025C666.918 273.313 666.651 272.387 666.651 271.253C666.651 269.733 667.244 268.503 668.43 267.554C669.617 266.605 671.419 266.131 673.844 266.131C675.409 266.131 676.766 266.405 677.901 266.946C679.043 267.495 679.955 268.251 680.645 269.222C681.335 270.193 681.794 271.349 682.032 272.676L689.789 272.246C689.455 269.926 688.662 267.821 687.401 265.946C686.14 264.07 684.397 262.58 682.165 261.461C679.933 260.349 677.182 259.786 673.904 259.786C669.016 259.786 665.279 260.875 662.69 263.062C660.102 265.249 658.812 268.065 658.812 271.527C658.812 273.617 659.264 275.396 660.161 276.864C661.066 278.331 662.579 279.547 664.715 280.496C666.851 281.445 669.795 282.275 673.54 282.986C676.054 283.416 677.953 283.854 679.236 284.306C680.519 284.758 681.379 285.299 681.831 285.944C682.284 286.581 682.506 287.352 682.506 288.256C682.506 289.917 681.817 291.125 680.445 291.889C679.065 292.645 677.196 293.03 674.823 293.03C671.931 293.03 669.765 292.415 668.341 291.177C666.918 289.946 666.013 288.286 665.635 286.196L657.877 286.552C658.063 289.064 658.826 291.281 660.154 293.208C661.481 295.128 663.373 296.632 665.813 297.729C668.252 298.819 671.256 299.368 674.816 299.368C677.849 299.368 680.534 298.93 682.862 298.048C685.191 297.166 687.015 295.899 688.343 294.238C689.67 292.578 690.338 290.562 690.338 288.19C690.338 286.151 689.885 284.417 688.988 282.994C688.083 281.571 686.518 280.37 684.286 279.399L684.301 279.391Z" fill="white"/>
<path d="M708.152 251.751H700.602V260.646H694.832V266.835H700.602V288.256C700.602 291.77 701.455 294.349 703.168 296.01C704.874 297.67 707.536 298.5 711.14 298.5H718.186V292.311H712.772C711.207 292.311 710.043 291.977 709.286 291.318C708.53 290.651 708.144 289.442 708.144 287.686V266.835H718.186V260.646H708.144V251.751H708.152Z" fill="white"/>
<path d="M733.062 247.622H725.231V255.168H733.062V247.622Z" fill="white"/>
<path d="M732.929 260.646H725.379V298.5H732.929V260.646Z" fill="white"/>
<path d="M769.906 261.676C768.03 260.416 765.671 259.793 762.824 259.793C760.829 259.793 758.982 260.164 757.269 260.898C755.563 261.632 754.11 262.758 752.923 264.278C752.278 265.101 751.751 266.079 751.329 267.184L751.143 260.653H744.239V298.508H751.788V276.449C751.788 273.084 752.619 270.519 754.28 268.762C755.941 267.006 758.1 266.131 760.762 266.131C762.52 266.131 763.943 266.531 765.034 267.339C766.124 268.147 766.91 269.311 767.385 270.823C767.859 272.342 768.096 274.218 768.096 276.441V298.5H775.646V274.166C775.646 271.416 775.157 268.962 774.185 266.798C773.214 264.641 771.79 262.929 769.913 261.676H769.906Z" fill="white"/>
<path d="M810.74 260.646V266.62C809.835 264.53 808.352 262.877 806.29 261.639C804.228 260.409 801.84 259.786 799.133 259.786C796.048 259.786 793.282 260.572 790.842 262.136C788.395 263.7 786.496 265.864 785.146 268.614C783.797 271.364 783.114 274.566 783.114 278.22C783.114 281.875 783.804 285.002 785.176 287.752C786.555 290.502 788.476 292.659 790.946 294.231C793.415 295.795 796.241 296.58 799.415 296.58C801.885 296.58 804.117 296.01 806.104 294.876C808.099 293.734 809.546 292.192 810.45 290.25V295.728C810.45 298.434 809.605 300.45 807.921 301.777C806.238 303.103 803.828 303.77 800.698 303.77C798.043 303.77 796.056 303.311 794.75 302.384C793.445 301.458 792.533 300.213 792.006 298.649L784.175 299.145C784.694 301.324 785.695 303.237 787.164 304.875C788.632 306.513 790.508 307.78 792.785 308.685C795.062 309.582 797.694 310.034 800.691 310.034C804.25 310.034 807.321 309.478 809.909 308.359C812.497 307.247 814.492 305.609 815.886 303.452C817.288 301.295 817.985 298.649 817.985 295.521V260.653H810.725L810.74 260.646ZM807.714 286.974C805.934 289.109 803.576 290.176 800.631 290.176C797.687 290.176 795.277 289.094 793.549 286.937C791.813 284.78 790.953 281.852 790.953 278.146C790.953 274.44 791.799 271.586 793.482 269.429C795.166 267.272 797.554 266.19 800.639 266.19C802.634 266.19 804.376 266.679 805.875 267.65C807.373 268.621 808.522 270 809.33 271.779C810.139 273.558 810.517 275.678 810.473 278.146C810.421 281.897 809.508 284.832 807.729 286.967L807.714 286.974Z" fill="white"/>
<g clip-path="url(#clip3_258_133)">
<mask id="mask1_258_133" style="mask-type:luminance" maskUnits="userSpaceOnUse" x="142" y="225" width="110" height="90">
<path d="M251.055 225H142V315H251.055V225Z" fill="white"/>
</mask>
<g mask="url(#mask1_258_133)">
<path d="M233.448 252.976V261.249H159.607V242.598H142V287.367H159.607V278.847H233.448V297.494H251.055V252.976H233.448Z" fill="url(#paint1_linear_258_133)"/>
<path d="M233.448 236.521C233.448 230.157 228.289 225 221.922 225H159.607V242.598H233.448V236.521Z" fill="url(#paint2_linear_258_133)"/>
<path d="M159.607 303.479C159.607 309.843 164.766 315 171.133 315H233.448V297.402H159.607V303.479Z" fill="#2B7FFF"/>
</g>
</g>
</g>
</g>
<defs>
<filter id="filter0_f_258_133" x="-143.14" y="-143.004" width="1247.24" height="835.104" filterUnits="userSpaceOnUse" color-interpolation-filters="sRGB">
<feFlood flood-opacity="0" result="BackgroundImageFix"/>
<feBlend mode="normal" in="SourceGraphic" in2="BackgroundImageFix" result="shape"/>
<feGaussianBlur stdDeviation="72.05" result="effect1_foregroundBlur_258_133"/>
</filter>
<linearGradient id="paint0_linear_258_133" x1="-192" y1="-109.6" x2="134208" y2="-109.6" gradientUnits="userSpaceOnUse">
<stop stop-color="#2B7FFF"/>
<stop offset="1" stop-color="#155DFC"/>
</linearGradient>
<linearGradient id="paint1_linear_258_133" x1="196.528" y1="232.074" x2="196.528" y2="317.7" gradientUnits="userSpaceOnUse">
<stop stop-color="#2B7FFF"/>
<stop offset="1" stop-color="#155DFC"/>
</linearGradient>
<linearGradient id="paint2_linear_258_133" x1="196.527" y1="232.074" x2="196.527" y2="317.7" gradientUnits="userSpaceOnUse">
<stop stop-color="#2B7FFF"/>
<stop offset="1" stop-color="#155DFC"/>
</linearGradient>
<clipPath id="clip0_258_133">
<rect width="960" height="540" rx="32" fill="white"/>
</clipPath>
<clipPath id="clip1_258_133">
<rect width="960" height="548" fill="white"/>
</clipPath>
<clipPath id="clip2_258_133">
<rect width="676" height="90" fill="white" transform="translate(142 225)"/>
</clipPath>
<clipPath id="clip3_258_133">
<rect width="109.055" height="90" fill="white" transform="translate(142 225)"/>
</clipPath>
</defs>
</svg>
